{"accessors":[{"bufferView":0,"componentType":5125,"count":3072,"max":[3050.0],"min":[0.0],"type":"SCALAR"},{"bufferView":1,"componentType":5126,"count":3072,"max":[394.62353515625,540.5418701171875,25.143421173095704],"min":[240.40904235839845,426.9810791015625,-166.3726806640625],"type":"VEC3"},{"bufferView":2,"componentType":5126,"count":3072,"max":[0.5931510329246521,0.8054459691047669,0.00017541937995702028],"min":[0.5926693081855774,0.8050912022590637,-0.00020793642033822834],"type":"VEC3"},{"bufferView":3,"componentType":5126,"count":3072,"max":[0.9871267080307007,0.9871289730072022],"min":[0.01286420226097107,0.012872159481048584],"type":"VEC2"},{"bufferView":4,"componentType":5125,"count":32256,"max":[32249.0],"min":[0.0],"type":"SCALAR"},{"bufferView":5,"componentType":5126,"count":32256,"max":[413.18280029296877,557.4921264648438,47.49602127075195],"min":[202.87777709960938,387.01470947265627,-188.72415161132813],"type":"VEC3"},{"bufferView":6,"componentType":5126,"count":32256,"max":[0.9995766878128052,0.9999950528144836,1.0],"min":[-0.9997255206108093,-0.999974250793457,-1.0],"type":"VEC3"},{"bufferView":7,"componentType":5126,"count":32256,"max":[0.875,0.625020444393158],"min":[0.125,0.12497955560684204],"type":"VEC2"},{"bufferView":8,"componentType":5125,"count":1920,"max":[1898.0],"min":[0.0],"type":"SCALAR"},{"bufferView":9,"componentType":5126,"count":1920,"max":[1.1754943508222876e-38,108.68641662597656,57.60420608520508],"min":[-647.8994750976563,83.11555480957031,31.964099884033204],"type":"VEC3"},{"bufferView":10,"componentType":5126,"count":1920,"max":[0.9823979735374451,0.999997079372406,0.9999940395355225],"min":[-0.9997227191925049,-0.9999972581863403,-0.999994695186615],"type":"VEC3"},{"bufferView":11,"componentType":5126,"count":1920,"max":[0.0037277936935424806,0.009068489074707032],"min":[0.000001862986550804635,0.00369417667388916],"type":"VEC2"},{"bufferView":12,"componentType":5125,"count":372585,"max":[372584.0],"min":[0.0],"type":"SCALAR"},{"bufferView":13,"componentType":5126,"count":372585,"max":[564.5568237304688,637.867431640625,449.55291748046877],"min":[-615.6292724609375,26.444902420043947,-593.567626953125],"type":"VEC3"},{"bufferView":14,"componentType":5126,"count":372585,"max":[1.0,1.0,1.0],"min":[-1.0,-1.0,-1.0],"type":"VEC3"},{"bufferView":15,"componentType":5126,"count":372585,"max":[1.0,1.0097758769989014],"min":[-0.010701113380491734,-0.00005125999450683594],"type":"VEC2"},{"bufferView":16,"componentType":5125,"count":31383,"max":[31376.0],"min":[0.0],"type":"SCALAR"},{"bufferView":17,"componentType":5126,"count":31383,"max":[564.5568237304688,620.2750854492188,447.4681701660156],"min":[-609.7919921875,26.45148277282715,-485.9626770019531],"type":"VEC3"},{"bufferView":18,"componentType":5126,"count":31383,"max":[1.0,1.0,1.0],"min":[-0.9999997615814209,-1.0,-1.0],"type":"VEC3"},{"bufferView":19,"componentType":5126,"count":31383,"max":[1.0,1.0],"min":[0.0,-0.000047087669372558594],"type":"VEC2"},{"bufferView":20,"componentType":5125,"count":5760,"max":[5744.0],"min":[0.0],"type":"SCALAR"},{"bufferView":21,"componentType":5126,"count":5760,"max":[1.1754943508222876e-38,564.1334228515625,755.4066162109375],"min":[-224.144775390625,487.49920654296877,628.622802734375],"type":"VEC3"},{"bufferView":22,"componentType":5126,"count":5760,"max":[0.9999853372573853,0.9897760152816773,0.9993362426757813],"min":[-0.9999927878379822,-0.9886179566383362,-0.9822224974632263],"type":"VEC3"},{"bufferView":23,"componentType":5126,"count":5760,"max":[1.0,1.0],"min":[0.0,0.04478609561920166],"type":"VEC2"},{"bufferView":24,"componentType":5125,"count":182592,"max":[182573.0],"min":[0.0],"type":"SCALAR"},{"bufferView":25,"componentType":5126,"count":182592,"max":[482.16168212890627,603.2741088867188,140.22940063476563],"min":[131.7557830810547,335.88873291015627,-281.4853820800781],"type":"VEC3"},{"bufferView":26,"componentType":5126,"count":182592,"max":[0.9993860721588135,0.9993309378623962,1.0],"min":[-0.99726802110672,-0.9992201924324036,-1.0],"type":"VEC3"},{"bufferView":27,"componentType":5126,"count":182592,"max":[1.0164755582809449,1.0],"min":[-0.004693472757935524,0.0],"type":"VEC2"},{"bufferView":28,"componentType":5125,"count":1728,"max":[1712.0],"min":[0.0],"type":"SCALAR"},{"bufferView":29,"componentType":5126,"count":1728,"max":[1.1754943508222876e-38,110.13430786132813,476.2157287597656],"min":[-126.15665435791016,64.00174713134766,421.91351318359377],"type":"VEC3"},{"bufferView":30,"componentType":5126,"count":1728,"max":[0.9848037958145142,0.9836792945861816,0.9999327659606934],"min":[-0.9854460954666138,-0.9836119413375855,-0.9921045303344727],"type":"VEC3"},{"bufferView":31,"componentType":5126,"count":1728,"max":[1.0,1.0],"min":[0.0,0.0],"type":"VEC2"},{"bufferView":32,"componentType":5125,"count":174576,"max":[174554.0],"min":[0.0],"type":"SCALAR"},{"bufferView":33,"componentType":5126,"count":174576,"max":[840.18017578125,533.2764892578125,901.2257080078125],"min":[-283.9775390625,28.61422348022461,420.32318115234377],"type":"VEC3"},{"bufferView":34,"componentType":5126,"count":174576,"max":[0.9999902248382568,0.9998919367790222,0.9999832510948181],"min":[-0.9999762177467346,-0.9999546408653259,-0.9999977350234985],"type":"VEC3"},{"bufferView":35,"componentType":5126,"count":174576,"max":[1.0,1.0],"min":[0.0,0.0],"type":"VEC2"},{"bufferView":36,"componentType":5125,"count":3888,"max":[3866.0],"min":[0.0],"type":"SCALAR"},{"bufferView":37,"componentType":5126,"count":3888,"max":[393.1929931640625,471.75787353515627,1.1754943508222876e-38],"min":[306.2682800292969,357.07666015625,-295.1652526855469],"type":"VEC3"},{"bufferView":38,"componentType":5126,"count":3888,"max":[0.9669123291969299,0.9619497060775757,0.9974767565727234],"min":[-0.9894847869873047,-0.9066551923751831,-0.996924638748169],"type":"VEC3"},{"bufferView":39,"componentType":5126,"count":3888,"max":[0.625,0.9951191544532776],"min":[0.34375,0.25],"type":"VEC2"},{"bufferView":40,"componentType":5125,"count":36000,"max":[35978.0],"min":[0.0],"type":"SCALAR"},{"bufferView":41,"componentType":5126,"count":36000,"max":[513.3094482421875,609.4949340820313,212.6712646484375],"min":[39.80632400512695,246.01425170898438,-353.93182373046877],"type":"VEC3"},{"bufferView":42,"componentType":5126,"count":36000,"max":[0.9914103150367737,0.9972986578941345,0.9999991655349731],"min":[-0.9944771528244019,-0.9994637370109558,-0.9995796084403992],"type":"VEC3"},{"bufferView":43,"componentType":5126,"count":36000,"max":[1.0,1.0],"min":[-2.9802322387695315e-8,0.0],"type":"VEC2"},{"bufferView":44,"componentType":5125,"count":19968,"max":[19946.0],"min":[0.0],"type":"SCALAR"},{"bufferView":45,"componentType":5126,"count":19968,"max":[524.1912231445313,70.95069122314453,408.4758605957031],"min":[-575.7412719726563,38.69892883300781,-552.6348266601563],"type":"VEC3"},{"bufferView":46,"componentType":5126,"count":19968,"max":[1.0,1.0,0.9993724822998047],"min":[-0.9999141097068787,-1.0,-0.9993714690208435],"type":"VEC3"},{"bufferView":47,"componentType":5126,"count":19968,"max":[0.75,0.012930572032928467],"min":[0.25,-0.00005173683166503906],"type":"VEC2"},{"bufferView":48,"componentType":5125,"count":1920,"max":[1901.0],"min":[0.0],"type":"SCALAR"},{"bufferView":49,"componentType":5126,"count":1920,"max":[1.1754943508222876e-38,615.2031860351563,200.84494018554688],"min":[-258.7005920410156,556.8544311523438,178.72274780273438],"type":"VEC3"},{"bufferView":50,"componentType":5126,"count":1920,"max":[1.0,1.0,1.0],"min":[-1.0,-0.0029693283140659334,-1.0],"type":"VEC3"},{"bufferView":51,"componentType":5126,"count":1920,"max":[1.0,1.1840319633483887],"min":[0.0,0.0],"type":"VEC2"},{"bufferView":52,"componentType":5125,"count":1920,"max":[1901.0],"min":[0.0],"type":"SCALAR"},{"bufferView":53,"componentType":5126,"count":1920,"max":[1.1754943508222876e-38,615.2031860351563,1.1754943508222876e-38],"min":[-258.7005920410156,556.8544311523438,-345.00543212890627],"type":"VEC3"},{"bufferView":54,"componentType":5126,"count":1920,"max":[1.0,1.0,1.0],"min":[-1.0,-0.0029744510538876058,-1.0],"type":"VEC3"},{"bufferView":55,"componentType":5126,"count":1920,"max":[1.0,1.1840319633483887],"min":[0.0,0.0],"type":"VEC2"},{"bufferView":56,"componentType":5125,"count":10224,"max":[10217.0],"min":[0.0],"type":"SCALAR"},{"bufferView":57,"componentType":5126,"count":10224,"max":[513.4833984375,609.892822265625,209.244140625],"min":[62.92720413208008,278.0390319824219,-350.48065185546877],"type":"VEC3"},{"bufferView":58,"componentType":5126,"count":10224,"max":[0.9603404402732849,0.99937504529953,0.6074731945991516],"min":[-0.030334770679473878,0.2782609164714813,-0.6076265573501587],"type":"VEC3"},{"bufferView":59,"componentType":5126,"count":10224,"max":[0.993729829788208,0.9941480159759522],"min":[0.005869626998901367,0.005853414535522461],"type":"VEC2"},{"bufferView":60,"componentType":5125,"count":960,"max":[950.0],"min":[0.0],"type":"SCALAR"},{"bufferView":61,"componentType":5126,"count":960,"max":[393.5210876464844,539.42333984375,22.949207305908204],"min":[197.50437927246095,368.3372497558594,-167.05209350585938],"type":"VEC3"},{"bufferView":62,"componentType":5126,"count":960,"max":[0.8052552342414856,0.8052676320075989,1.0],"min":[-0.8052369952201843,-0.8052478432655335,-1.0],"type":"VEC3"},{"bufferView":63,"componentType":5126,"count":960,"max":[1.0,1.0],"min":[-5.960464477539063e-8,0.0],"type":"VEC2"},{"bufferView":64,"componentType":5125,"count":108672,"max":[108650.0],"min":[0.0],"type":"SCALAR"},{"bufferView":65,"componentType":5126,"count":108672,"max":[8.077198028564454,530.3099975585938,1.1754943508222876e-38],"min":[-400.85302734375,331.2572326660156,-818.445556640625],"type":"VEC3"},{"bufferView":66,"componentType":5126,"count":108672,"max":[0.9997164607048035,0.9999949336051941,0.9999879598617554],"min":[-0.999804675579071,-0.9999992251396179,-0.9999392628669739],"type":"VEC3"},{"bufferView":67,"componentType":5126,"count":108672,"max":[0.875,1.0],"min":[0.125,0.0],"type":"VEC2"},{"bufferView":68,"componentType":5125,"count":74496,"max":[74474.0],"min":[0.0],"type":"SCALAR"},{"bufferView":69,"componentType":5126,"count":74496,"max":[8.114582061767579,803.0234985351563,682.4649658203125],"min":[-400.8880920410156,424.1174011230469,-823.2933349609375],"type":"VEC3"},{"bufferView":70,"componentType":5126,"count":74496,"max":[1.0,1.0,0.9998279809951782],"min":[-1.0,-1.0,-0.9998729228973389],"type":"VEC3"},{"bufferView":71,"componentType":5126,"count":74496,"max":[1.0,0.9583760499954224],"min":[0.0,0.0],"type":"VEC2"},{"bufferView":72,"componentType":5125,"count":122496,"max":[122489.0],"min":[0.0],"type":"SCALAR"},{"bufferView":73,"componentType":5126,"count":122496,"max":[8.073383331298829,530.4948120117188,674.16796875],"min":[-400.846923828125,321.1714172363281,263.89007568359377],"type":"VEC3"},{"bufferView":74,"componentType":5126,"count":122496,"max":[0.999696671962738,0.9999958872795105,0.999987781047821],"min":[-0.9996944069862366,-0.9999914169311523,-0.9999380707740784],"type":"VEC3"},{"bufferView":75,"componentType":5126,"count":122496,"max":[0.875,1.0],"min":[0.125,0.0],"type":"VEC2"}],"asset":{"generator":"SimLab GLTF","version":"2.0"},"bufferViews":[{"buffer":0,"byteLength":12288,"target":34963},{"buffer":0,"byteLength":36864,"byteOffset":12288,"byteStride":12,"target":34962},{"buffer":0,"byteLength":36864,"byteOffset":49152,"byteStride":12,"target":34962},{"buffer":0,"byteLength":24576,"byteOffset":86016,"byteStride":8,"target":34962},{"buffer":0,"byteLength":129024,"byteOffset":110592,"target":34963},{"buffer":0,"byteLength":387072,"byteOffset":239616,"byteStride":12,"target":34962},{"buffer":0,"byteLength":387072,"byteOffset":626688,"byteStride":12,"target":34962},{"buffer":0,"byteLength":258048,"byteOffset":1013760,"byteStride":8,"target":34962},{"buffer":0,"byteLength":7680,"byteOffset":1271808,"target":34963},{"buffer":0,"byteLength":23040,"byteOffset":1279488,"byteStride":12,"target":34962},{"buffer":0,"byteLength":23040,"byteOffset":1302528,"byteStride":12,"target":34962},{"buffer":0,"byteLength":15360,"byteOffset":1325568,"byteStride":8,"target":34962},{"buffer":0,"byteLength":1490340,"byteOffset":1340928,"target":34963},{"buffer":0,"byteLength":4471020,"byteOffset":2831268,"byteStride":12,"target":34962},{"buffer":0,"byteLength":4471020,"byteOffset":7302288,"byteStride":12,"target":34962},{"buffer":0,"byteLength":2980680,"byteOffset":11773308,"byteStride":8,"target":34962},{"buffer":0,"byteLength":125532,"byteOffset":14753988,"target":34963},{"buffer":0,"byteLength":376596,"byteOffset":14879520,"byteStride":12,"target":34962},{"buffer":0,"byteLength":376596,"byteOffset":15256116,"byteStride":12,"target":34962},{"buffer":0,"byteLength":251064,"byteOffset":15632712,"byteStride":8,"target":34962},{"buffer":0,"byteLength":23040,"byteOffset":15883776,"target":34963},{"buffer":0,"byteLength":69120,"byteOffset":15906816,"byteStride":12,"target":34962},{"buffer":0,"byteLength":69120,"byteOffset":15975936,"byteStride":12,"target":34962},{"buffer":0,"byteLength":46080,"byteOffset":16045056,"byteStride":8,"target":34962},{"buffer":0,"byteLength":730368,"byteOffset":16091136,"target":34963},{"buffer":0,"byteLength":2191104,"byteOffset":16821504,"byteStride":12,"target":34962},{"buffer":0,"byteLength":2191104,"byteOffset":19012608,"byteStride":12,"target":34962},{"buffer":0,"byteLength":1460736,"byteOffset":21203712,"byteStride":8,"target":34962},{"buffer":0,"byteLength":6912,"byteOffset":22664448,"target":34963},{"buffer":0,"byteLength":20736,"byteOffset":22671360,"byteStride":12,"target":34962},{"buffer":0,"byteLength":20736,"byteOffset":22692096,"byteStride":12,"target":34962},{"buffer":0,"byteLength":13824,"byteOffset":22712832,"byteStride":8,"target":34962},{"buffer":0,"byteLength":698304,"byteOffset":22726656,"target":34963},{"buffer":0,"byteLength":2094912,"byteOffset":23424960,"byteStride":12,"target":34962},{"buffer":0,"byteLength":2094912,"byteOffset":25519872,"byteStride":12,"target":34962},{"buffer":0,"byteLength":1396608,"byteOffset":27614784,"byteStride":8,"target":34962},{"buffer":0,"byteLength":15552,"byteOffset":29011392,"target":34963},{"buffer":0,"byteLength":46656,"byteOffset":29026944,"byteStride":12,"target":34962},{"buffer":0,"byteLength":46656,"byteOffset":29073600,"byteStride":12,"target":34962},{"buffer":0,"byteLength":31104,"byteOffset":29120256,"byteStride":8,"target":34962},{"buffer":0,"byteLength":144000,"byteOffset":29151360,"target":34963},{"buffer":0,"byteLength":432000,"byteOffset":29295360,"byteStride":12,"target":34962},{"buffer":0,"byteLength":432000,"byteOffset":29727360,"byteStride":12,"target":34962},{"buffer":0,"byteLength":288000,"byteOffset":30159360,"byteStride":8,"target":34962},{"buffer":0,"byteLength":79872,"byteOffset":30447360,"target":34963},{"buffer":0,"byteLength":239616,"byteOffset":30527232,"byteStride":12,"target":34962},{"buffer":0,"byteLength":239616,"byteOffset":30766848,"byteStride":12,"target":34962},{"buffer":0,"byteLength":159744,"byteOffset":31006464,"byteStride":8,"target":34962},{"buffer":0,"byteLength":7680,"byteOffset":31166208,"target":34963},{"buffer":0,"byteLength":23040,"byteOffset":31173888,"byteStride":12,"target":34962},{"buffer":0,"byteLength":23040,"byteOffset":31196928,"byteStride":12,"target":34962},{"buffer":0,"byteLength":15360,"byteOffset":31219968,"byteStride":8,"target":34962},{"buffer":0,"byteLength":7680,"byteOffset":31235328,"target":34963},{"buffer":0,"byteLength":23040,"byteOffset":31243008,"byteStride":12,"target":34962},{"buffer":0,"byteLength":23040,"byteOffset":31266048,"byteStride":12,"target":34962},{"buffer":0,"byteLength":15360,"byteOffset":31289088,"byteStride":8,"target":34962},{"buffer":0,"byteLength":40896,"byteOffset":31304448,"target":34963},{"buffer":0,"byteLength":122688,"byteOffset":31345344,"byteStride":12,"target":34962},{"buffer":0,"byteLength":122688,"byteOffset":31468032,"byteStride":12,"target":34962},{"buffer":0,"byteLength":81792,"byteOffset":31590720,"byteStride":8,"target":34962},{"buffer":0,"byteLength":3840,"byteOffset":31672512,"target":34963},{"buffer":0,"byteLength":11520,"byteOffset":31676352,"byteStride":12,"target":34962},{"buffer":0,"byteLength":11520,"byteOffset":31687872,"byteStride":12,"target":34962},{"buffer":0,"byteLength":7680,"byteOffset":31699392,"byteStride":8,"target":34962},{"buffer":0,"byteLength":434688,"byteOffset":31707072,"target":34963},{"buffer":0,"byteLength":1304064,"byteOffset":32141760,"byteStride":12,"target":34962},{"buffer":0,"byteLength":1304064,"byteOffset":33445824,"byteStride":12,"target":34962},{"buffer":0,"byteLength":869376,"byteOffset":34749888,"byteStride":8,"target":34962},{"buffer":0,"byteLength":297984,"byteOffset":35619264,"target":34963},{"buffer":0,"byteLength":893952,"byteOffset":35917248,"byteStride":12,"target":34962},{"buffer":0,"byteLength":893952,"byteOffset":36811200,"byteStride":12,"target":34962},{"buffer":0,"byteLength":595968,"byteOffset":37705152,"byteStride":8,"target":34962},{"buffer":0,"byteLength":489984,"byteOffset":38301120,"target":34963},{"buffer":0,"byteLength":1469952,"byteOffset":38791104,"byteStride":12,"target":34962},{"buffer":0,"byteLength":1469952,"byteOffset":40261056,"byteStride":12,"target":34962},{"buffer":0,"byteLength":979968,"byteOffset":41731008,"byteStride":8,"target":34962}],"buffers":[{"byteLength":42710976,"uri":"tele.bin"}],"images":[{"mimeType":"image/png","uri":"Textures/lambert34_baseColor.png"},{"mimeType":"image/png","uri":"Textures/lambert32_baseColor.png"}],"materials":[{"alphaMode":"OPAQUE","doubleSided":true,"pbrMetallicRoughness":{"baseColorTexture":{"index":0},"metallicFactor":0.0}},{"alphaCutoff":0.1541539579629898,"alphaMode":"BLEND","doubleSided":true,"pbrMetallicRoughness":{"baseColorFactor":[0.5,0.5,0.5,0.1541539579629898],"metallicFactor":0.0}},{"alphaMode":"OPAQUE","doubleSided":true,"pbrMetallicRoughness":{"baseColorFactor":[0.17858411371707917,0.17858411371707917,0.17858411371707917,1.0],"metallicFactor":0.0}},{"alphaMode":"OPAQUE","doubleSided":true,"pbrMetallicRoughness":{"baseColorFactor":[0.8167846202850342,0.9824470281600952,1.0,1.0],"metallicFactor":0.0}},{"alphaCutoff":0.7210000157356262,"alphaMode":"BLEND","doubleSided":true,"pbrMetallicRoughness":{"baseColorFactor":[0.12069275230169296,0.12069275230169296,0.12069275230169296,0.7210000157356262],"metallicFactor":0.0}},{"alphaMode":"OPAQUE","doubleSided":true,"pbrMetallicRoughness":{"baseColorFactor":[0.5,0.5,0.5,1.0],"metallicFactor":0.0}},{"alphaMode":"OPAQUE","doubleSided":true,"pbrMetallicRoughness":{"metallicFactor":0.0}},{"alphaMode":"OPAQUE","doubleSided":true,"pbrMetallicRoughness":{"baseColorTexture":{"index":1},"metallicFactor":0.0}}],"meshes":[{"primitives":[{"attributes":{"NORMAL":2,"POSITION":1,"TEXCOORD_0":3},"indices":0,"material":0,"mode":4}]},{"primitives":[{"attributes":{"NORMAL":6,"POSITION":5,"TEXCOORD_0":7},"indices":4,"material":1,"mode":4}]},{"primitives":[{"attributes":{"NORMAL":10,"POSITION":9,"TEXCOORD_0":11},"indices":8,"material":2,"mode":4}]},{"primitives":[{"attributes":{"NORMAL":14,"POSITION":13,"TEXCOORD_0":15},"indices":12,"material":3,"mode":4}]},{"primitives":[{"attributes":{"NORMAL":18,"POSITION":17,"TEXCOORD_0":19},"indices":16,"material":3,"mode":4}]},{"primitives":[{"attributes":{"NORMAL":22,"POSITION":21,"TEXCOORD_0":23},"indices":20,"material":2,"mode":4}]},{"primitives":[{"attributes":{"NORMAL":26,"POSITION":25,"TEXCOORD_0":27},"indices":24,"material":4,"mode":4}]},{"primitives":[{"attributes":{"NORMAL":30,"POSITION":29,"TEXCOORD_0":31},"indices":28,"material":2,"mode":4}]},{"primitives":[{"attributes":{"NORMAL":34,"POSITION":33,"TEXCOORD_0":35},"indices":32,"material":2,"mode":4}]},{"primitives":[{"attributes":{"NORMAL":38,"POSITION":37,"TEXCOORD_0":39},"indices":36,"material":5,"mode":4}]},{"primitives":[{"attributes":{"NORMAL":42,"POSITION":41,"TEXCOORD_0":43},"indices":40,"material":3,"mode":4}]},{"primitives":[{"attributes":{"NORMAL":46,"POSITION":45,"TEXCOORD_0":47},"indices":44,"material":6,"mode":4}]},{"primitives":[{"attributes":{"NORMAL":50,"POSITION":49,"TEXCOORD_0":51},"indices":48,"material":6,"mode":4}]},{"primitives":[{"attributes":{"NORMAL":54,"POSITION":53,"TEXCOORD_0":55},"indices":52,"material":6,"mode":4}]},{"primitives":[{"attributes":{"NORMAL":58,"POSITION":57,"TEXCOORD_0":59},"indices":56,"material":7,"mode":4}]},{"primitives":[{"attributes":{"NORMAL":62,"POSITION":61,"TEXCOORD_0":63},"indices":60,"material":6,"mode":4}]},{"primitives":[{"attributes":{"NORMAL":66,"POSITION":65,"TEXCOORD_0":67},"indices":64,"material":3,"mode":4}]},{"primitives":[{"attributes":{"NORMAL":70,"POSITION":69,"TEXCOORD_0":71},"indices":68,"material":3,"mode":4}]},{"primitives":[{"attributes":{"NORMAL":74,"POSITION":73,"TEXCOORD_0":75},"indices":72,"material":3,"mode":4}]}],"nodes":[{"children":[1,2,3,4,5],"matrix":[1.0,0.0,0.0,0.0,0.0,4.4896593387466768e-11,-1.0,0.0,0.0,1.0,4.4896593387466768e-11,0.0,0.0,0.0,0.0,1.0]},{"name":"front","rotation":[-0.7071067690849304,0.0,0.0,-0.7071067690849304],"translation":[38.715972900390628,-68.11214447021485,-0.06823909282684326]},{"name":"persp","rotation":[-0.3592606484889984,-0.35058778524398806,-0.6040464639663696,-0.6189894080162048],"translation":[1229.44677734375,-30.413198471069337,706.0307006835938]},{"name":"side","rotation":[-0.5,-0.5,-0.5,-0.5],"translation":[58.878482818603519,-57.056758880615237,4.147342205047607]},{"name":"top","rotation":[-5.551115123125783e-17,0.0,0.0,-1.0],"translation":[-2.2129626274108888,3.297283887863159,61.51164245605469]},{"name":"SimLabCorrectionTransform","children":[6],"rotation":[-0.7071067690849304,0.0,0.0,-0.7071067690849304],"scale":[0.5,0.5,0.5],"translation":[-47.10877227783203,19.09343147277832,-20.336475372314454]},{"name":"RootNode (gltf orientation matrix)_TRS","children":[7,14,18,25,28,31,34,37,40,43,46,49,52,55,58,61,64],"rotation":[0.0,0.0,0.0,-1.0],"translation":[0.0,7.105427357601002e-15,7.105427357601002e-15]},{"name":"polySurface159_TRS","children":[8,11],"rotation":[0.0,0.0,0.0,-1.0],"translation":[0.0,7.105427357601002e-15,7.105427357601002e-15]},{"name":"polySurface185_TRS","children":[10],"rotation":[0.0,0.0,0.0,-1.0]},{"mesh":0},{"children":[9]},{"name":"polySurface187_TRS","children":[13],"rotation":[0.0,0.0,0.0,-1.0]},{"mesh":1},{"children":[12]},{"name":"birchLimb1Main1_Matrix","children":[15],"rotation":[0.0,0.0,0.0,-1.0],"translation":[0.0,7.105427357601002e-15,7.105427357601002e-15]},{"name":"polySurface198_TRS","children":[17],"rotation":[0.0,0.0,0.0,-1.0]},{"mesh":2},{"children":[16]},{"name":"polySurface184_TRS","children":[19,22],"rotation":[0.0,0.0,0.0,-1.0],"translation":[0.0,7.105427357601002e-15,7.105427357601002e-15]},{"name":"polySurface184_lambert28_0_TRS","children":[21],"rotation":[0.0,0.0,0.0,-1.0]},{"mesh":3},{"children":[20]},{"name":"polySurface184_lambert28_0_TRS_2","children":[24],"rotation":[0.0,0.0,0.0,-1.0]},{"mesh":4},{"children":[23]},{"name":"polySurface183_TRS","children":[27],"rotation":[0.0,0.0,0.0,-1.0]},{"mesh":5},{"children":[26]},{"name":"polySurface186_TRS","children":[30],"rotation":[0.0,0.0,0.0,-1.0]},{"mesh":6},{"children":[29]},{"name":"polySurface188_TRS","children":[33],"rotation":[0.0,0.0,0.0,-1.0]},{"mesh":7},{"children":[32]},{"name":"polySurface193_TRS","children":[36],"rotation":[0.0,0.0,0.0,-1.0]},{"mesh":8},{"children":[35]},{"name":"pCube44_TRS","children":[39],"rotation":[0.0,0.0,0.0,-1.0]},{"mesh":9},{"children":[38]},{"name":"polySurface194_TRS","children":[42],"rotation":[0.0,0.0,0.0,-1.0]},{"mesh":10},{"children":[41]},{"name":"polySurface195_TRS","children":[45],"rotation":[0.0,0.0,0.0,-1.0]},{"mesh":11},{"children":[44]},{"name":"polySurface196_TRS","children":[48],"rotation":[0.0,0.0,0.0,-1.0]},{"mesh":12},{"children":[47]},{"name":"polySurface197_TRS","children":[51],"rotation":[0.0,0.0,0.0,-1.0]},{"mesh":13},{"children":[50]},{"name":"polySurface199_TRS","children":[54],"rotation":[0.0,0.0,0.0,-1.0]},{"mesh":14},{"children":[53]},{"name":"polySurface200_TRS","children":[57],"rotation":[0.0,0.0,0.0,-1.0]},{"mesh":15},{"children":[56]},{"name":"pasted__polySurface109_TRS","children":[60],"rotation":[0.0,0.0,0.0,-1.0]},{"mesh":16},{"children":[59]},{"name":"pasted__polySurface110_TRS","children":[63],"rotation":[0.0,0.0,0.0,-1.0]},{"mesh":17},{"children":[62]},{"name":"pasted__polySurface111_TRS","children":[66],"rotation":[0.0,0.0,0.0,-1.0]},{"mesh":18},{"children":[65]}],"samplers":[{"wrapS":10497,"wrapT":10497}],"scene":0,"scenes":[{"nodes":[0]}],"textures":[{"source":0},{"source":1}]}